<svg version="1.1" viewBox="0 0 15 15" xmlns="http://www.w3.org/2000/svg">
 <path d="m0.34471 0.34471h14.311v14.311h-14.311zm9.6553 5.6553c-1.1046 0-2 0.89543-2 2s0.89543 2 2 2h1c0.5523 0 1 0.4477 1 1s-0.4477 1-1 1h-1c-0.55228 0-1-0.4477-1-1h-1c0 1.1046 0.89543 2 2 2h1c1.1046 0 2-0.8954 2-2 0-1.1046-0.8954-2-2-2h-1c-0.55228 0-1-0.44772-1-1s0.44772-1 1-1h1.1667c0.4602 0 0.8333 0.3731 0.8333 0.83333v0.16667h1v-0.16667c0-1.0125-0.8208-1.8333-1.8333-1.8333zm-7 0h5v1h-2v6h-1v-6h-2z" clip-rule="evenodd" fill-rule="evenodd"/>
</svg>
