<svg width="800px" height="800px" fill="none" version="1.1" viewBox="0 0 24 24" xmlns="http://www.w3.org/2000/svg">
 <path d="m4.9351 6.1126c0-2.2203 0-3.3304 0.68976-4.0202 0.68975-0.68976 1.7999-0.68976 4.0202-0.68976h4.7099c2.2203 0 3.3304 0 4.0202 0.68976 0.68977 0.68975 0.68977 1.7999 0.68977 4.0202v11.775c0 2.2203 0 3.3304-0.68977 4.0202-0.68977 0.68977-1.7999 0.68977-4.0202 0.68977h-4.7099c-2.2203 0-3.3304 0-4.0202-0.68977-0.68976-0.68977-0.68976-1.7999-0.68976-4.0202zm4.1212-2.355c0-0.32515 0.26359-0.58874 0.58874-0.58874h4.7099c0.3251 0 0.58874 0.26359 0.58874 0.58874s-0.26364 0.58874-0.58874 0.58874h-4.7099c-0.32515 0-0.58874-0.26359-0.58874-0.58874zm2.9437 16.485c0.65033 0 1.1775-0.52716 1.1775-1.1775s-0.52716-1.1775-1.1775-1.1775-1.1775 0.52716-1.1775 1.1775 0.52716 1.1775 1.1775 1.1775z" clip-rule="evenodd" fill="#000" fill-rule="evenodd" stroke-width="1.1775"/>
</svg>
